<svg width="19" height="18" viewBox="0 0 19 18" fill="none" xmlns="http://www.w3.org/2000/svg">
<path fill-rule="evenodd" clip-rule="evenodd" d="M3.81127 15.1249L3.20147 5.06319L3.13387 3.79966C3.12699 3.67085 3.22957 3.56264 3.35855 3.56264H15.329C15.4595 3.56264 15.5626 3.67327 15.5535 3.80343L15.4648 5.06319L14.855 15.1249C14.789 16.2135 13.8869 17.0627 12.7963 17.0627H5.86999C4.77937 17.0627 3.87725 16.2135 3.81127 15.1249ZM6.89536 12.3752C6.89536 12.6858 7.1472 12.9377 7.45786 12.9377C7.76853 12.9377 8.02034 12.6858 8.02034 12.3752V7.87515C8.02034 7.5645 7.76853 7.31264 7.45786 7.31264C7.1472 7.31264 6.89536 7.5645 6.89536 7.87515V12.3752ZM11.2078 7.31264C11.5185 7.31264 11.7703 7.5645 11.7703 7.87515V12.3752C11.7703 12.6858 11.5185 12.9377 11.2078 12.9377C10.8972 12.9377 10.6453 12.6858 10.6453 12.3752V7.87515C10.6453 7.5645 10.8972 7.31264 11.2078 7.31264Z" fill="#F05252"/>
<path fill-rule="evenodd" clip-rule="evenodd" d="M6.57238 1.84714C6.80874 1.29562 7.35105 0.938019 7.95111 0.938019H10.712C11.312 0.938019 11.8543 1.29562 12.0907 1.84714L12.826 3.56275H14.7512C14.801 3.56275 14.8475 3.56275 14.8909 3.56302H14.9311C14.9476 3.56229 14.9642 3.56228 14.981 3.56302H16.0816C16.4958 3.56302 16.8316 3.89881 16.8316 4.31302C16.8316 4.72724 16.4958 5.06302 16.0816 5.06302H2.58154C2.16733 5.06302 1.83154 4.72724 1.83154 4.31302C1.83154 3.89881 2.16733 3.56302 2.58154 3.56302H3.68209C3.69888 3.56228 3.71554 3.56229 3.73204 3.56302H3.7718C3.81523 3.56275 3.86171 3.56275 3.91148 3.56275H5.83711L6.57238 1.84714ZM10.751 2.52893L11.194 3.56275H7.46908L7.91218 2.52893C7.93581 2.47378 7.99003 2.43802 8.05003 2.43802H10.6131C10.6731 2.43802 10.7273 2.47378 10.751 2.52893Z" fill="#F05252"/>
</svg>
