<svg width="19" height="18" viewBox="0 0 19 18" fill="none" xmlns="http://www.w3.org/2000/svg">
<path fill-rule="evenodd" clip-rule="evenodd" d="M3.97802 15.1249L3.36822 5.06318L3.30062 3.79964C3.29374 3.67084 3.39631 3.56262 3.5253 3.56262H15.4958C15.6263 3.56262 15.7294 3.67325 15.7202 3.80342L15.6316 5.06318L15.0218 15.1249C14.9558 16.2135 14.0537 17.0626 12.9631 17.0626H6.03674C4.94611 17.0626 4.044 16.2135 3.97802 15.1249ZM7.06211 12.3751C7.06211 12.6858 7.31395 12.9376 7.62461 12.9376C7.93528 12.9376 8.18709 12.6858 8.18709 12.3751V7.87514C8.18709 7.56449 7.93528 7.31262 7.62461 7.31262C7.31395 7.31262 7.06211 7.56449 7.06211 7.87514V12.3751ZM11.3746 7.31262C11.6852 7.31262 11.9371 7.56449 11.9371 7.87514V12.3751C11.9371 12.6858 11.6852 12.9376 11.3746 12.9376C11.0639 12.9376 10.8121 12.6858 10.8121 12.3751V7.87514C10.8121 7.56449 11.0639 7.31262 11.3746 7.31262Z" fill="#1A56DB"/>
<path fill-rule="evenodd" clip-rule="evenodd" d="M6.73888 1.84711C6.97524 1.29559 7.51755 0.937988 8.11761 0.937988H10.8785C11.4785 0.937988 12.0208 1.29559 12.2572 1.84711L12.9925 3.56272H14.9177C14.9675 3.56272 15.014 3.56272 15.0574 3.56299H15.0976C15.1141 3.56226 15.1307 3.56225 15.1475 3.56299H16.2481C16.6623 3.56299 16.9981 3.89878 16.9981 4.31299C16.9981 4.72721 16.6623 5.06299 16.2481 5.06299H2.74805C2.33384 5.06299 1.99805 4.72721 1.99805 4.31299C1.99805 3.89878 2.33384 3.56299 2.74805 3.56299H3.84859C3.86538 3.56225 3.88205 3.56226 3.89854 3.56299H3.9383C3.98174 3.56272 4.02821 3.56272 4.07798 3.56272H6.00362L6.73888 1.84711ZM10.9175 2.5289L11.3605 3.56272H7.63559L8.07869 2.5289C8.10231 2.47375 8.15654 2.43799 8.21654 2.43799H10.7796C10.8396 2.43799 10.8938 2.47375 10.9175 2.5289Z" fill="#1A56DB"/>
</svg>
