<svg width="17" height="17" viewBox="0 0 17 17" fill="none" xmlns="http://www.w3.org/2000/svg">
<path fill-rule="evenodd" clip-rule="evenodd" d="M1.9668 3.50002C1.9668 2.4875 2.78761 1.66669 3.80013 1.66669H13.8001C14.8127 1.66669 15.6335 2.4875 15.6335 3.50002V13.5C15.6335 14.5126 14.8127 15.3334 13.8001 15.3334H3.80013C2.78761 15.3334 1.9668 14.5126 1.9668 13.5V3.50002ZM9.6818 11.5H5.80013C5.43194 11.5 5.13346 11.2016 5.13346 10.8334C5.13346 10.4652 5.43194 10.1667 5.80013 10.1667H9.6818C9.8252 9.68475 10.2716 9.33335 10.8001 9.33335H11.4668C12.1111 9.33335 12.6335 9.85569 12.6335 10.5V11.1667C12.6335 11.811 12.1111 12.3334 11.4668 12.3334H10.8001C10.2716 12.3334 9.8252 11.982 9.6818 11.5ZM4.9668 5.83335C4.9668 5.18902 5.48913 4.66669 6.13346 4.66669H6.80013C7.32864 4.66669 7.77506 5.01811 7.91846 5.50002H12.1335C12.5017 5.50002 12.8001 5.7985 12.8001 6.16669C12.8001 6.53487 12.5017 6.83335 12.1335 6.83335H7.91846C7.77506 7.31529 7.32864 7.66669 6.80013 7.66669H6.13346C5.48913 7.66669 4.9668 7.14435 4.9668 6.50002V5.83335Z" fill="#1E429F"/>
</svg>
