<svg width="8" height="8" viewBox="0 0 8 8" fill="none" xmlns="http://www.w3.org/2000/svg">
<g clip-path="url(#clip0_3188_1321)">
<path d="M4.72583 4.00002L7.44317 1.28268C7.49221 1.23532 7.53132 1.17867 7.55822 1.11604C7.58513 1.0534 7.59929 0.986037 7.59988 0.91787C7.60048 0.849703 7.58749 0.782101 7.56167 0.719008C7.53586 0.655915 7.49774 0.598594 7.44953 0.550391C7.40133 0.502188 7.34401 0.464068 7.28092 0.438254C7.21782 0.412441 7.15022 0.399451 7.08206 0.400044C7.01389 0.400636 6.94652 0.414799 6.88389 0.441704C6.82125 0.46861 6.7646 0.507721 6.71725 0.556755L3.9999 3.2741L1.28256 0.556755C1.18573 0.463238 1.05605 0.411491 0.921443 0.412661C0.786835 0.413831 0.658072 0.467823 0.562886 0.563008C0.467701 0.658194 0.413708 0.786957 0.412539 0.921565C0.411369 1.05617 0.463116 1.18585 0.556633 1.28268L3.27398 4.00002L0.556633 6.71737C0.507599 6.76473 0.468488 6.82138 0.441582 6.88401C0.414676 6.94665 0.400514 7.01401 0.399922 7.08218C0.399329 7.15035 0.412319 7.21795 0.438132 7.28104C0.463946 7.34413 0.502066 7.40145 0.550269 7.44966C0.598472 7.49786 0.655793 7.53598 0.718886 7.56179C0.781979 7.58761 0.849581 7.6006 0.917748 7.6C0.985915 7.59941 1.05328 7.58525 1.11592 7.55834C1.17855 7.53144 1.2352 7.49233 1.28256 7.44329L3.9999 4.72595L6.71725 7.44329C6.81407 7.53681 6.94375 7.58856 7.07836 7.58739C7.21297 7.58622 7.34173 7.53223 7.43692 7.43704C7.5321 7.34185 7.5861 7.21309 7.58727 7.07848C7.58844 6.94388 7.53669 6.81419 7.44317 6.71737L4.72583 4.00002Z" fill="#0E9F6E"/>
</g>
<defs>
<clipPath id="clip0_3188_1321">
<rect width="8" height="8" fill="white"/>
</clipPath>
</defs>
</svg>
